<svg xmlns="http://www.w3.org/2000/svg" width="920" height="470" viewBox="0 0 920 470" role="img" aria-labelledby="title desc">
  <title id="title">Long-context prefill latency</title>
  <desc id="desc">Lower is better; c1 unique prompts and a 240K passkey check</desc>
  <style>
    :root { color-scheme: light dark; }
    text { font-family: ui-sans-serif, system-ui, -apple-system, BlinkMacSystemFont, "Segoe UI", sans-serif; fill: #24292f; font-size: 12px; }
    .title { font-size: 18px; font-weight: 600; }
    .subtitle, .tick { fill: #57606a; }
    .grid { stroke: #d0d7de; stroke-width: 1; }
    .axis { stroke: #8c959f; stroke-width: 1; }
    .series { fill: none; stroke-width: 3; stroke-linejoin: round; stroke-linecap: round; }
    .marker { stroke: #ffffff; stroke-width: 2; }
    @media (prefers-color-scheme: dark) {
      text { fill: #f0f6fc; }
      .subtitle, .tick { fill: #8c959f; }
      .grid { stroke: #30363d; }
      .axis { stroke: #6e7681; }
      .marker { stroke: #0d1117; }
    }
  </style>
  <text class="title" x="78" y="28">Long-context prefill latency</text>
  <text class="subtitle" x="78" y="50">Lower is better; c1 unique prompts and a 240K passkey check</text>
  <line x1="78" y1="72" x2="102" y2="72" stroke="#2563eb" stroke-width="3" stroke-dasharray=""/>
  <circle cx="90" cy="72" r="4" fill="#2563eb"/>
  <text x="109" y="76">Qwen3.8 vLLM 2200</text>
  <line x1="278" y1="72" x2="302" y2="72" stroke="#dc2626" stroke-width="3" stroke-dasharray=""/>
  <circle cx="290" cy="72" r="4" fill="#dc2626"/>
  <text x="309" y="76">Qwen3.8 vLLM</text>
  <line x1="438" y1="72" x2="462" y2="72" stroke="#059669" stroke-width="3" stroke-dasharray=""/>
  <circle cx="450" cy="72" r="4" fill="#059669"/>
  <text x="469" y="76">Qwen3.8 NVFP4</text>
  <line x1="606" y1="72" x2="630" y2="72" stroke="#9333ea" stroke-width="3" stroke-dasharray=""/>
  <circle cx="618" cy="72" r="4" fill="#9333ea"/>
  <text x="637" y="76">GLM-5.3 EXL3</text>
  <line class="grid" x1="78" y1="404.0" x2="892" y2="404.0"/>
  <text class="tick" x="68" y="408.0" text-anchor="end">0</text>
  <line class="grid" x1="78" y1="342.4" x2="892" y2="342.4"/>
  <text class="tick" x="68" y="346.4" text-anchor="end">200</text>
  <line class="grid" x1="78" y1="280.8" x2="892" y2="280.8"/>
  <text class="tick" x="68" y="284.8" text-anchor="end">400</text>
  <line class="grid" x1="78" y1="219.2" x2="892" y2="219.2"/>
  <text class="tick" x="68" y="223.2" text-anchor="end">600</text>
  <line class="grid" x1="78" y1="157.6" x2="892" y2="157.6"/>
  <text class="tick" x="68" y="161.6" text-anchor="end">800</text>
  <line class="grid" x1="78" y1="96.0" x2="892" y2="96.0"/>
  <text class="tick" x="68" y="100.0" text-anchor="end">1000</text>
  <line class="grid" x1="78.0" y1="96" x2="78.0" y2="404"/>
  <text class="tick" x="78.0" y="428" text-anchor="middle">4K</text>
  <line class="grid" x1="491.4" y1="96" x2="491.4" y2="404"/>
  <text class="tick" x="491.4" y="428" text-anchor="middle">32K</text>
  <line class="grid" x1="767.0" y1="96" x2="767.0" y2="404"/>
  <text class="tick" x="767.0" y="428" text-anchor="middle">128K</text>
  <line class="grid" x1="892.0" y1="96" x2="892.0" y2="404"/>
  <text class="tick" x="892.0" y="428" text-anchor="middle">240K</text>
  <line class="axis" x1="78" y1="404" x2="892" y2="404"/>
  <line class="axis" x1="78" y1="96" x2="78" y2="404"/>
  <text x="485.0" y="454" text-anchor="middle">Prompt length (tokens, logarithmic scale)</text>
  <text transform="translate(20 250.0) rotate(-90)" text-anchor="middle">TTFT p95 (seconds)</text>
  <path class="series" d="M 78.0 403.4 L 491.4 400.1 L 767.0 387.3 L 892.0 369.1" stroke="#2563eb" stroke-dasharray=""/>
  <circle class="marker" cx="78.0" cy="403.4" r="5" fill="#2563eb"><title>Qwen3.8 vLLM 2200: 1.96</title></circle>
  <circle class="marker" cx="491.4" cy="400.1" r="5" fill="#2563eb"><title>Qwen3.8 vLLM 2200: 12.64</title></circle>
  <circle class="marker" cx="767.0" cy="387.3" r="5" fill="#2563eb"><title>Qwen3.8 vLLM 2200: 54.38</title></circle>
  <circle class="marker" cx="892.0" cy="369.1" r="5" fill="#2563eb"><title>Qwen3.8 vLLM 2200: 113.18</title></circle>
  <path class="series" d="M 78.0 403.4 L 491.4 400.1 L 767.0 387.4 L 892.0 367.9" stroke="#dc2626" stroke-dasharray=""/>
  <circle class="marker" cx="78.0" cy="403.4" r="5" fill="#dc2626"><title>Qwen3.8 vLLM: 1.88</title></circle>
  <circle class="marker" cx="491.4" cy="400.1" r="5" fill="#dc2626"><title>Qwen3.8 vLLM: 12.5</title></circle>
  <circle class="marker" cx="767.0" cy="387.4" r="5" fill="#dc2626"><title>Qwen3.8 vLLM: 53.85</title></circle>
  <circle class="marker" cx="892.0" cy="367.9" r="5" fill="#dc2626"><title>Qwen3.8 vLLM: 117.3</title></circle>
  <path class="series" d="M 78.0 403.2 L 491.4 398.0 L 767.0 378.3 L 892.0 219.6" stroke="#059669" stroke-dasharray=""/>
  <circle class="marker" cx="78.0" cy="403.2" r="5" fill="#059669"><title>Qwen3.8 NVFP4: 2.55</title></circle>
  <circle class="marker" cx="491.4" cy="398.0" r="5" fill="#059669"><title>Qwen3.8 NVFP4: 19.36</title></circle>
  <circle class="marker" cx="767.0" cy="378.3" r="5" fill="#059669"><title>Qwen3.8 NVFP4: 83.49</title></circle>
  <circle class="marker" cx="892.0" cy="219.6" r="5" fill="#059669"><title>Qwen3.8 NVFP4: 598.56</title></circle>
  <path class="series" d="M 78.0 402.5 L 491.4 392.7 L 767.0 358.7 L 892.0 317.8" stroke="#9333ea" stroke-dasharray=""/>
  <circle class="marker" cx="78.0" cy="402.5" r="5" fill="#9333ea"><title>GLM-5.3 EXL3: 5</title></circle>
  <circle class="marker" cx="491.4" cy="392.7" r="5" fill="#9333ea"><title>GLM-5.3 EXL3: 36.85</title></circle>
  <circle class="marker" cx="767.0" cy="358.7" r="5" fill="#9333ea"><title>GLM-5.3 EXL3: 147</title></circle>
  <circle class="marker" cx="892.0" cy="317.8" r="5" fill="#9333ea"><title>GLM-5.3 EXL3: 279.8</title></circle>
</svg>
